<?xml version="1.0" encoding="utf-8"?>
<!-- Generator: Adobe Illustrator 16.0.0, SVG Export Plug-In . SVG Version: 6.00 Build 0)  -->
<!DOCTYPE svg PUBLIC "-//W3C//DTD SVG 1.0//EN" "http://www.w3.org/TR/2001/REC-SVG-20010904/DTD/svg10.dtd">
<svg version="1.0" id="Layer_1" xmlns="http://www.w3.org/2000/svg" xmlns:xlink="http://www.w3.org/1999/xlink" x="0px" y="0px"
	 width="800px" height="800px" viewBox="0 0 800 800" enable-background="new 0 0 800 800" xml:space="preserve">
<g>
	<path fill-rule="evenodd" clip-rule="evenodd" fill="#19398A" d="M587.651,471.876c-8.414,0-16.504,0-24.968,0
		c0.016-16.03-1.069-31.946-3.53-47.935c-0.532,1.042-1.122,2.061-1.588,3.131c-6.193,14.244-12.407,28.479-18.499,42.77
		c-0.688,1.612-1.412,2.243-3.167,2.176c-3.601-0.135-7.212-0.122-10.813-0.004c-1.574,0.054-2.274-0.556-2.893-1.942
		c-6.462-14.489-12.991-28.947-19.513-43.408c-0.393-0.873-0.887-1.697-1.333-2.541c-0.22,0.014-0.44,0.03-0.659,0.044
		c-0.473,7.857-1.135,15.71-1.369,23.576c-0.237,7.93-0.052,15.872-0.052,24.021c-5.235,0-10.009,0-14.998,0
		c5.08-26.534,7.483-53.285,8.626-80.641c1.24,0,2.587,0,3.933,0c4.18,0,8.361,0.094,12.536-0.043
		c1.782-0.058,2.573,0.625,3.263,2.19c6.527,14.815,13.109,29.605,19.741,44.375c1.198,2.67,2.688,5.213,4.229,8.174
		c0.551-0.898,0.965-1.458,1.264-2.074c8.023-16.568,15.668-33.299,21.697-50.721c0.405-1.173,0.86-1.959,2.358-1.934
		c4.995,0.088,9.994,0.07,14.991,0.011c1.477-0.018,1.934,0.509,2.043,1.986c0.956,12.893,1.711,25.813,3.104,38.661
		c1.333,12.271,3.356,24.469,5.082,36.696C587.283,469.489,587.449,470.534,587.651,471.876z"/>
	<path fill-rule="evenodd" clip-rule="evenodd" fill="#19398A" d="M402.065,288.905c0.342-0.042,0.814-0.151,1.286-0.15
		c13.354,0.028,26.707,0,40.059,0.137c5.998,0.061,11.873,1.024,17.53,3.19c11.547,4.422,18.189,12.768,19.797,24.952
		c1.814,13.746-0.754,26.427-10.089,37.175c-5.977,6.885-13.606,11.201-22.305,13.633c-14.422,4.031-28.96,3.374-43.533,0.897
		c-1.813-0.308-2.367-1.051-2.179-2.946c1.82-18.222,1.07-36.495,0.859-54.749C403.407,303.697,402.569,296.359,402.065,288.905z
		 M425.35,298.481c-0.059,0.787-0.156,1.5-0.156,2.215c-0.008,13.019-0.052,26.039,0.019,39.06
		c0.025,4.742,0.237,9.487,0.523,14.222c0.326,5.364,2.055,6.936,7.37,6.989c9.212,0.092,15.744-4.307,19.993-12.239
		c4.487-8.373,5.319-17.454,4.47-26.715c-0.53-5.78-2.344-11.198-6.072-15.805C444.598,297.684,435.172,297.718,425.35,298.481z"/>
	<path fill-rule="evenodd" clip-rule="evenodd" fill="#19398A" d="M770.106,471.976c-9.2,0-17.963,0.042-26.722-0.076
		c-0.768-0.009-1.798-0.917-2.236-1.68c-3.911-6.81-7.653-13.715-11.584-20.514c-1.356-2.342-2.745-4.791-6.131-6.595
		c0.535,9.979,1.03,19.276,1.538,28.719c-8.229,0-16.38,0-24.745,0c2.502-26.843,2.532-53.602-0.042-80.708c1.012,0,1.884,0,2.757,0
		c10.895,0,21.793-0.098,32.688,0.056c3.572,0.051,7.204,0.451,10.691,1.222c11.859,2.625,17.7,11.646,15.966,23.719
		c-1.36,9.479-6.819,15.271-15.518,18.458c-0.766,0.282-1.543,0.538-2.308,0.827c-0.142,0.052-0.249,0.197-0.549,0.447
		c4.469,2.245,6.818,6.382,9.402,10.261c5.353,8.04,10.595,16.155,15.876,24.241C769.448,470.748,769.657,471.176,770.106,471.976z
		 M723.702,433.032c6.507,0.742,11.165-1.757,13.174-7.59c1.146-3.337,1.889-6.994,1.886-10.505
		c-0.005-9.612-6.323-14.834-15.06-12.781C723.702,412.379,723.702,422.634,723.702,433.032z"/>
	<path fill-rule="evenodd" clip-rule="evenodd" fill="#19398A" d="M371.496,471.849c-8.298,0-16.453,0-24.76,0
		c2.534-26.897,2.537-53.664-0.012-80.614c0.941-0.041,1.745-0.105,2.548-0.107c11.061-0.007,22.124-0.129,33.182,0.063
		c3.894,0.068,7.882,0.505,11.642,1.488c11.006,2.88,16.382,11.909,14.71,23.501c-1.355,9.372-6.759,15.136-15.343,18.345
		c-0.98,0.364-1.973,0.692-3.393,1.19c4.529,2.104,6.747,5.874,9.118,9.427c5.498,8.238,10.858,16.568,16.271,24.864
		c0.342,0.525,0.628,1.088,1.134,1.973c-4.317,0-8.298,0-12.279,0c-4.587,0-9.178-0.068-13.764,0.038
		c-1.532,0.035-2.293-0.505-3.013-1.827c-3.757-6.896-7.554-13.773-11.503-20.562c-1.348-2.316-2.646-4.856-6.073-6.341
		C370.487,453.067,370.983,462.318,371.496,471.849z M370.123,417.559c0,4.499,0.067,8.997-0.034,13.495
		c-0.039,1.734,0.563,2.217,2.252,2.227c4.987,0.028,8.391-2.4,10.585-6.644c2.077-4.02,2.743-8.425,2.345-12.861
		c-0.762-8.475-5.033-12.231-13-12.045c-1.774,0.041-2.208,0.693-2.177,2.332C370.179,408.56,370.123,413.059,370.123,417.559z"/>
	<path fill-rule="evenodd" clip-rule="evenodd" fill="#19398A" d="M625.65,369.421c-5.045,0-9.847,0-14.847,0
		c2.819-26.851,2.242-53.623,0.779-80.67c5.43,0,10.567-0.082,15.698,0.082c0.827,0.026,1.729,1.034,2.41,1.761
		c13.552,14.444,27.075,28.916,40.611,43.377c0.321,0.346,0.699,0.645,1.47,1.346c-0.073-15.801-0.978-31.068-2.845-46.436
		c5.211,0,10.163,0,15.166,0c-0.491,6.368-1.179,12.624-1.416,18.895c-0.346,9.149-0.47,18.308-0.506,27.463
		c-0.036,9.251,0.152,18.505,0.24,27.756c0.008,0.819-0.022,1.639,0.013,2.457c0.183,4.101,0.152,3.754-4.02,4.187
		c-5.297,0.546-8.743-1.386-12.333-5.364c-13.162-14.578-26.825-28.705-40.281-43.018c-0.602-0.641-1.021-1.453-1.956-1.926
		C622.773,336.167,623.179,352.662,625.65,369.421z"/>
	<path fill-rule="evenodd" clip-rule="evenodd" fill="#19398A" d="M373.222,288.875c4.552,0,9.448,0,14.918,0
		c-3.478,26.698-2.051,53.512-1.717,80.645c-3.807,0-7.39,0.086-10.963-0.073c-0.712-0.032-1.468-0.922-2.06-1.553
		c-14.575-15.519-29.13-31.057-43.696-46.585c-0.603-0.644-1.279-1.22-2.507-2.383c-0.819,17.267,0.06,33.81,2.243,50.475
		c-5.052,0-9.767,0-14.779,0c2.839-26.875,2.319-53.656,0.769-80.649c5.443,0,10.589-0.045,15.732,0.056
		c0.648,0.012,1.394,0.684,1.903,1.229c13.38,14.281,26.731,28.588,40.099,42.88c0.64,0.684,1.371,1.283,2.059,1.921
		c0.288-0.073,0.575-0.147,0.864-0.221C375.135,319.405,374.181,304.192,373.222,288.875z"/>
	<path fill-rule="evenodd" clip-rule="evenodd" fill="#19398A" d="M531.761,537.263c8.208,0,16.042,0,24.248,0
		c-1.168,11.489-2.467,22.847-0.832,34.729c-4.21,0.896-8.304,2.22-12.478,2.558c-8.296,0.671-16.656,1.342-24.952,1.041
		c-17.166-0.623-32.393-12.26-36.31-27.494c-5.581-21.711,3.521-44.535,29.174-52.762c11.379-3.649,23.009-3.714,34.699-1.628
		c0.321,0.056,0.644,0.115,0.958,0.204c6.921,1.958,7.052,2.187,5.343,9.078c-0.648,2.618-1.226,5.255-1.939,7.855
		c-0.187,0.678-0.78,1.771-1.156,1.76c-0.734-0.025-1.688-0.52-2.129-1.125c-3.229-4.447-7.186-7.778-12.67-9.099
		c-11.106-2.671-21.32,1.608-26.049,11.969c-6.127,13.435-5.969,27.255,0.375,40.587c4.495,9.447,12.987,13.216,23.266,11.527
		c1.745-0.286,2.109-1.305,2.036-2.741c-0.37-7.352-0.75-14.704-1.152-22.051C532.116,540.293,531.928,538.924,531.761,537.263z"/>
	<path fill-rule="evenodd" clip-rule="evenodd" fill="#19398A" d="M605.845,369.397c-1.213,0.066-2.002,0.145-2.792,0.146
		c-7.127,0.01-14.255-0.059-21.381,0.05c-1.913,0.029-2.859-0.479-3.587-2.373c-2.464-6.409-5.214-12.708-7.79-19.075
		c-0.498-1.232-1.157-1.741-2.535-1.729c-7.29,0.063-14.582-0.018-21.871,0.1c-0.781,0.013-1.977,0.827-2.249,1.547
		c-2.39,6.345-4.711,12.721-6.832,19.16c-0.595,1.814-1.357,2.428-3.236,2.369c-4.317-0.136-8.643-0.043-13.413-0.043
		c1.088-2.244,2.002-4.111,2.902-5.986c11.522-24.043,22.684-48.244,31.826-73.317c0.469-1.283,1.141-1.538,2.34-1.521
		c3.932,0.055,7.869,0.121,11.796-0.023c1.836-0.067,2.601,0.501,3.311,2.271c7.421,18.513,14.86,37.02,22.557,55.419
		c2.897,6.932,6.474,13.581,9.736,20.36C604.976,367.48,605.302,368.22,605.845,369.397z M566.046,336.343
		c-3.274-8.186-6.418-16.041-9.831-24.574c-3.133,8.552-6.025,16.446-9.002,24.574C553.646,336.343,559.601,336.343,566.046,336.343
		z"/>
	<path fill-rule="evenodd" clip-rule="evenodd" fill="#19398A" d="M481.438,574.366c-1.052,0.087-1.756,0.194-2.463,0.194
		c-7.371,0.015-14.743-0.048-22.115,0.05c-1.706,0.023-2.418-0.62-3.015-2.119c-2.593-6.534-5.26-13.042-8.052-19.491
		c-0.345-0.796-1.601-1.677-2.451-1.693c-7.206-0.134-14.415-0.05-21.623-0.099c-1.329-0.009-2.074,0.376-2.531,1.707
		c-2.252,6.565-4.643,13.088-6.867,19.662c-0.498,1.475-1.148,2.067-2.751,2.029c-4.47-0.107-8.944-0.038-13.79-0.038
		c3.005-6.289,6.006-12.079,8.585-18.052c8.746-20.258,17.36-40.568,25.954-60.892c0.606-1.436,1.269-1.991,2.835-1.948
		c3.93,0.113,7.866,0.131,11.793-0.005c1.685-0.061,2.327,0.546,2.947,2.074c7.962,19.611,15.936,39.219,24.102,58.745
		c2.489,5.95,5.578,11.651,8.384,17.472C480.716,572.661,481.008,573.385,481.438,574.366z M422.839,541.276
		c6.521,0,12.519,0,18.841,0c-3.264-8.14-6.418-16.013-9.843-24.562C428.684,525.321,425.802,533.187,422.839,541.276z"/>
	<path fill-rule="evenodd" clip-rule="evenodd" fill="#19398A" d="M300.667,471.838c-8.329,0-16.481,0-24.849,0
		c2.317-26.837,2.338-53.53-0.016-80.516c0.945-0.071,1.797-0.19,2.649-0.191c10.239-0.013,20.485-0.245,30.713,0.093
		c5.008,0.165,10.156,0.822,14.928,2.283c7.147,2.187,10.659,7.723,11.176,15.15c0.595,8.545-1.269,16.225-8.384,21.685
		c-6.728,5.163-14.558,6.325-22.804,5.391c-2.82-0.319-2.477-3.045-3.778-4.669c0.494-0.224,0.772-0.435,1.074-0.477
		c7.901-1.096,10.524-7.615,10.84-13.435c0.141-2.609,0.199-5.248-0.006-7.851c-0.43-5.43-3.388-8.282-8.849-8.623
		c-5.526-0.343-4.51-0.389-4.514,4.188c-0.011,14.251-0.138,28.507,0.153,42.753c0.155,7.51,1.088,15.004,1.66,22.505
		C300.699,470.61,300.667,471.101,300.667,471.838z"/>
	<path fill-rule="evenodd" clip-rule="evenodd" fill="#19398A" d="M568.801,493.812c8.346,0,16.511,0,24.906,0
		c-0.368,3.897-0.984,7.678-1.038,11.467c-0.225,15.293-0.711,30.601-0.238,45.876c0.319,10.407,8.059,15.715,18.581,14.7
		c11.318-1.091,15.205-9.644,15.796-18.655c0.964-14.725,0.229-29.439-1.241-44.117c-0.302-3.005-0.559-6.016-0.85-9.202
		c5.013,0,9.878,0,14.996,0c-0.427,5.178-0.971,10.276-1.238,15.393c-0.446,8.495-0.701,17.002-1.064,25.502
		c-0.235,5.553-0.166,11.148-0.855,16.648c-1.742,13.907-9.058,21.386-22.896,23.627c-7.737,1.252-15.527,1.055-23.194-0.617
		c-13.149-2.868-19.917-11.315-20.059-24.952c-0.053-4.907,0.458-9.827,0.272-14.724c-0.499-13.158-1.234-26.308-1.873-39.461
		C568.784,494.892,568.801,494.484,568.801,493.812z"/>
	<path fill-rule="evenodd" clip-rule="evenodd" fill="#19398A" d="M707.638,561.879c-0.291,4.273-0.56,8.161-0.831,12.131
		c-17.795,0-35.482,0-53.135,0c2.439-26.616,2.458-53.232-0.027-80.072c15.887,0,31.848,0,47.996,0c0,3.869,0,7.763,0,12.044
		c-8.105-2.021-16.217-3.045-24.778-2.581c0,2.049,0,3.904,0,5.761c0,5.488,0.108,10.978-0.053,16.461
		c-0.066,2.296,0.482,3.253,2.938,3.034c5.782-0.518,11.581-0.855,17.373-1.271c0.8-0.057,1.601-0.137,2.574-0.223
		c0,3.934,0,7.66,0,11.415c-7.562-0.476-15.016-0.943-22.832-1.437c0,2.723-0.045,4.823,0.008,6.922
		c0.138,5.479,0.46,10.957,0.421,16.435c-0.021,2.879,1.57,3.597,3.805,3.492c6.441-0.295,12.879-0.713,19.311-1.176
		C702.733,562.646,705.04,562.224,707.638,561.879z"/>
	<path fill-rule="evenodd" clip-rule="evenodd" fill="#19398A" d="M690.586,471.508c-17.897,0-35.527,0-53.154,0
		c2.462-26.511,2.467-53.208-0.034-80.138c15.921,0,31.891,0,48.03,0c0,4.054,0,8.007,0,11.973
		c-4.244-0.723-8.308-1.606-12.418-2.063c-4.019-0.446-8.085-0.457-12.26-0.664c0,8.714,0,16.876,0,25.659
		c7.58-0.442,15.036-0.878,22.685-1.326c0,3.69,0,7.319,0,11.066c-7.567-0.402-15.022-0.798-22.494-1.196
		c0,7.592-0.246,14.618,0.081,21.615c0.241,5.154,0.639,5.528,5.91,5.238c7.66-0.421,15.29-1.406,22.932-2.152
		c0.402-0.041,0.803-0.081,1.539-0.154C691.125,463.518,690.852,467.553,690.586,471.508z"/>
	<path fill-rule="evenodd" clip-rule="evenodd" fill="#19398A" d="M361.719,503.435c0,8.066,0.036,15.762-0.028,23.456
		c-0.015,1.75,0.974,1.811,2.209,1.728c5.875-0.386,11.752-0.776,17.626-1.173c0.873-0.061,1.743-0.173,2.789-0.279
		c0,3.956,0,7.675,0,11.385c-7.501-0.464-14.871-0.92-22.599-1.399c0,3.294-0.056,5.969,0.011,8.642
		c0.127,5.07,0.42,10.137,0.446,15.206c0.011,2.251,1.272,2.955,3.036,2.917c5.55-0.118,11.104-0.286,16.641-0.665
		c3.409-0.231,6.792-0.883,10.597-1.402c-0.275,4.218-0.536,8.165-0.798,12.161c-17.819,0-35.507,0-53.15,0
		c2.437-26.651,2.461-53.271-0.036-80.092c15.932,0,31.903,0,48.043,0c0,3.927,0,7.82,0,12.049
		C378.367,504.009,370.263,502.884,361.719,503.435z"/>
	<path fill-rule="evenodd" clip-rule="evenodd" fill="#19398A" d="M477.935,459.358c-0.277,4.233-0.542,8.271-0.796,12.149
		c-17.843,0-35.457,0-53.18,0c2.501-26.563,2.501-53.317-0.038-80.19c15.992,0,31.842,0,47.88,0c0,4.094,0,8.057,0,11.63
		c-6.629-0.74-13.257-1.488-19.889-2.201c-0.972-0.106-2.038-0.261-2.921,0.031c-0.688,0.229-1.644,1.105-1.652,1.706
		c-0.104,7.533-0.058,15.068-0.037,22.604c0,0.227,0.134,0.45,0.367,1.183c7.224-0.433,14.538-0.868,22.1-1.321
		c0,3.674,0,7.358,0,11.067c-7.414-0.402-14.795-0.803-22.501-1.221c0,6.29-0.045,12,0.021,17.705
		c0.024,2.12,0.382,4.237,0.438,6.359c0.044,1.613,0.706,2.249,2.316,2.497c6.5,1.007,12.891,0.044,19.299-0.808
		C472.083,460.183,474.822,459.791,477.935,459.358z"/>
	<path fill-rule="evenodd" clip-rule="evenodd" fill="#19398A" d="M329.824,561.86c-0.334,4.351-0.637,8.293-0.934,12.145
		c-17.8,0-35.279,0-53.041,0c2.284-26.611,2.302-53.295-0.037-80.131c8.322,0,16.476,0,24.921,0
		c-0.165,2.128-0.291,4.209-0.492,6.283c-1.67,17.066-1.447,34.185-1.285,51.297c0.031,3.267,0.454,6.53,0.546,9.8
		c0.064,2.229,1.455,2.812,3.21,2.758c5.471-0.168,10.945-0.354,16.402-0.75C322.582,563.01,326.022,562.372,329.824,561.86z"/>
	<path fill-rule="evenodd" clip-rule="evenodd" fill="#19398A" d="M514.143,369.427c-7.88,0-15.964,0-24.267,0
		c2.48-26.849,2.404-53.602-0.078-80.515c8.269,0,16.486,0,24.427,0c-0.4,13.508-1.097,26.901-1.11,40.294
		C513.098,342.524,513.766,355.842,514.143,369.427z"/>
	<path fill-rule="evenodd" clip-rule="evenodd" fill="#19398A" d="M300.712,369.376c-8.267,0-16.408,0-24.838,0
		c2.319-26.823,2.237-53.572-0.062-80.472c8.242,0,16.464,0,24.915,0C298.267,315.711,298.067,342.458,300.712,369.376z"/>
	<path fill-rule="evenodd" clip-rule="evenodd" fill="#19398A" d="M623.15,391.281c-2.467,26.987-2.617,53.678-0.052,80.532
		c-8.253,0-16.549,0-24.833,0c2.402-26.861,2.251-53.614-0.043-80.532C606.545,391.281,614.77,391.281,623.15,391.281z"/>
	<g>
		<path fill-rule="evenodd" clip-rule="evenodd" fill="#FFFFFF" d="M214.621,491.133c4.28-6.235,22.905-5.354,29.655,1.569
			c-1.418-0.486-2.804-1.121-4.26-1.427c-4.821-1.013-9.649-2.499-14.51-2.641C221.905,488.528,218.252,490.232,214.621,491.133z"/>
		<path fill="#19398A" d="M155.866,264.573c0.9-0.027,1.77,0.035,2.704,0.238c0.116,0.036,0.266,0.036,0.355,0.042
			c0.346,0.156,0.38,0.633,0.898,0.613c0.56-0.389,1.519-0.361,2.46-0.326c0.693,0.346,0.961,1.13,1.492,1.628
			c0.349-1.356,2.315-1.724,3.439-0.988c0.757,0.504,0.362,1.342,1.147,1.656c-0.179-1.145,0.536-1.382,1.224-1.629
			c0.629,0.095,0.738,0.279,1.021,0.572c0.049,0.055,0.323,0.743,0.323,0.743c0.313,1.05,0.57,2.119,0.944,3.155
			c0.267,0.742,0.361,1.648,0.608,2.083l-0.013-0.005v0.823c-0.541,0.288-1.235,0.402-1.973,0.497
			c0.214,0.622,0.695,0.941,0.819,1.643c-1.328,1.029-3.12-0.545-4.436,0c0.048,1.158,1.062,1.349,1.327,2.302
			c-0.863,1.568-2.669,0.218-4.105,0.163c-0.67-0.04-1.202,0.444-1.82,0.32c-0.618-0.128-1.16-1.246-1.643-0.653
			c-0.144,0.614,1.799,0.947,1.478,1.799c2.515-0.136,4.206,2.105,6.568,2.309c0.607,0.041,1.363-0.272,1.976-0.162
			c1.833,0.306,3.557,3.426,3.741,8.202c0-1.091,0.859-7.44,0.859-8.543c1.13-0.45,1.892-1.295,2.964-1.806
			c0.149-1.969,0.279-4,0.477-5.9c-1.834-0.315-3.783-0.566-5.626-0.9c-0.487-1.608-1.297-5.948-3.143-6.794
			c0.02-0.012,0.042-0.02,0.074-0.025c-1.525-0.853-4-0.901-5.656-0.989c-1.162-0.061-2.335-0.074-3.474-0.041
			c-0.531,0.014-1.608,0.259-2.106,0.069c-1.143-0.443-1.838-0.681-3.058-0.532c-0.379,0.197-0.497,0.342-0.524,0.422
			c-0.253,0.266-0.582,0.607-0.136,0.736C155.138,264.887,155.497,264.764,155.866,264.573 M137.968,268.41
			c-0.267-1.746,0.96-1.95,1.955-2.439c0.348-0.027,0.688-0.042,1.068-0.069c0.84,0.116,1.274,1.119,1.752,1.534
			c0.087-0.817,0.531-1.261,0.927-1.752c0.642-0.053,1.307-0.143,1.963-0.218c1.008,0.165,0.926,1.404,1.717,1.8
			c-0.131-2.059,2.854-2.542,4.101-1.322c-0.014-0.58-0.243-0.948-0.332-1.479l-14.262,1.479c-0.81-0.022-1.533,0-1.84,0.177
			C136.788,266.093,137.047,267.591,137.968,268.41 M110.223,341.557c-0.02,0.047-0.027,0.109-0.06,0.171
			c-0.492,1.45-0.969,2.895-1.467,4.346c-0.142,0.423-0.21,0.737-0.299,0.928c3.12-0.259,6.213-0.702,9.225-1.43
			c0.572-0.137,1.11-0.314,1.677-0.479c0.749-0.313,1.635-0.708,2.241-0.933c-0.048-0.469-0.062-0.955-0.088-1.118
			c-0.171-1.574-0.45-3.126-0.812-4.667c-0.197,0.068-0.442,0.142-0.634,0.205c-1.738,0.565-3.495,1.07-5.267,1.464
			c-1.417,0.375-2.827,0.701-4.19,0.817C110.428,341.1,110.346,341.325,110.223,341.557 M182.677,394.578
			c-0.149-0.632-0.309-1.254-0.344-1.975c-3.82-5.534-7.132-11.323-10.696-16.918c-1.178-1.88-2.308-4.054-3.587-5.75
			c-1.207-1.553-3.081-2.909-4.615-4.442c-4.599-4.619-9.497-8.755-14.295-12.973c3.612-7.093,6.971-14.771,10.847-21.516
			c1.312-2.256,3.04-4.647,3.944-6.909c0.703-1.737,0.984-3.945,1.485-5.906c1.515-6.064,2.794-11.706,4.422-17.743
			c0.954-0.756,1.863-1.547,1.799-3.284c-1.354-0.17-2.015-1.05-2.949-1.642c-2.546,1.198-7.589,0.695-8.046-1.636
			c-0.602-3.175,3.897-3.433,4.273-5.587c-1.157,0.028-3.245,1.044-3.77,0.165c1.064-0.791,2.433-1.302,3.446-2.147
			c-2.015-1.711-4.919-2.52-7.39-3.774c-0.337-2.583-1.588-4.203-1.486-7.222c0.313-0.838,0.782-1.281,1.029-2.418
			c0.15-0.457,0.15-0.676-0.157-1.418c-0.775-0.027-1.417,0.13-1.853-0.108c-0.865-0.839,0.02-2.509-0.662-3.619
			c-0.362,1.178-0.462,2.616-1.146,3.454c-0.046-0.885-0.332-1.532-0.66-2.139c0.176,2.46,0.961,4.313,1.493,6.411
			c-1.838-0.3-2.514,0.545-4.095,0.491c0,0.504-0.178,0.838-0.526,0.981c-3.698,1.274-8.175,1.756-11.507,3.447
			c-1.485-1.547-1.867-4.244-3.256-5.907c0.619,2.495,2.036,4.442,2.786,7.236c4.856-1.336,8.742-3.631,13.955-4.607
			c0.501-0.557,1.703-0.899,2.643-0.496c0.109,0.899,0.775,1.99,0.313,2.958c-1.881-0.274-0.755-0.035-1.955,0.34
			c-0.402-0.225-0.484,0.326-1.205,0.428c-0.824,0.279-1.247,0.279-2.017,0.771c-0.813,0.354-0.668,0.429-1.48,0.539
			c-0.715,0.333,0.124,0-0.715,0.333c-0.782,0.138-0.865,0.226-1.641,0.484c-1.18,0.348-0.749,0.226-1.758,0.504
			c-1.541,0.422-0.606,0.165-2.224,0.593c-2.342,0.498-0.243-0.061-2.445,0.606c-1.015-1.39-2.017-2.786-3.276-3.946
			c-0.518,0.458-0.682-0.796-0.831-1.954c-1.355-0.463-1.777-1.838-1.813-3.625c-0.454-0.082-1.137,1.029-1.96,1.146
			c-1.275-0.511-2.203-2.222-3.938-2.453c-1.418-0.211-3.634,0.544-5.418,0.817c-1.377,0.204-2.725,0.244-3.822,0.56
			c-8.639,0.822-38.372,5.647-43.83,6.5c5.711-0.505,37.929-4.368,45.057-5.969c3.155-0.253,6.426-1.159,9.329-1.09
			c0.291,0.409,0.557,0.858,0.469,1.636c-4.456,1.498-9.11,1.941-13.776,2.636c-2.698,0.402-11.223,2.146-12.823,2.458
			c-6.895,1.376-14.724,2.808-22.333,4.109c-2.222,0.382-4.532,0.743-6.733,1.151c-13.161,2.398-27.115,3.414-40.893,1.807
			c-1.104-0.164-1.541,0.074-1.758,0.279c0.149-0.581,0.587-1.159,1.049-1.417c1.695-0.805,3.754-1.586,5.778-1.982h0.981
			c0.395-0.347-0.614-0.149-0.981-0.164c-1.703-0.054-4.519,0.034-5.75,0c-0.328,0.443-0.92,1.076-1.044,1.813
			c-0.047,0.088-0.422,1.881-0.422,1.969v0.163c0.565,2.719,0.962,5.586,2.446,7.399c4.789,0.062,9.163,1.41,13.647,1.464
			c3.645,0.055,7.297-0.496,10.854-0.66c2.923-0.129,5.867-0.082,8.863-0.321c5.214-0.421,10.541-1.771,15.768-2.623
			c16.092-2.63,31.947-5.524,46.984-8.72c1.451-1.514,2.527-3.727,5.737-2.624c1.191,2.535,2.152,5.307,3.133,8.048
			c2.413,0.735,4.202,2.642,7.229,1.483c-1.356-6.22,4.416-6.758,8.201-8.707c-0.203,0.62,0.14,0.852,0.172,1.315
			c3.374,0.061,2.938,3.959,4.423,5.909c-3.27-1.187-6.596,0.142-8.693,1.313c-0.8,0.437-2.446,1.315-2.622,1.983
			c-0.362,1.282,0.537,3.986,0.809,5.907c0.299,2.085,0.947,4.381,0.841,6.078c-0.159,2.038-1.431,4.218-1.992,5.916
			c-0.716,2.212-1.26,4.073-1.791,6.239c-4.429,4.014-8.175,8.695-12.986,12.326c-0.198-0.682-0.286-1.479-0.443-2.208
			c-0.538,0.505-1.178,0.94-1.894,1.321c-0.048,0.022-0.076,0.036-0.109,0.063c-0.143,0.08-0.278,0.142-0.429,0.217
			c0.155,0.374,0.259,0.769,0.341,1.172c0.354,0.795,0.64,1.593,0.858,2.431c0.109-0.068,0.212-0.129,0.293-0.197
			c0.341-0.306,0.681-0.614,1.028-0.934c0.252-0.389,0.483-0.777,0.846-1.055c0.366,0.953-0.042,1.485-0.607,1.975
			c-0.381,0.45-0.804,0.873-1.302,1.267c0.525,2.31,0.716,4.709,0.67,6.963c-6.317,4.683-15.168,6.322-22.866,6.779
			c-2.262,0.129-4.471-1.763-6.249-2.997c-1.506-1.049-2.997-2.154-4.47-3.278c-0.014-0.006-0.04-0.04-0.067-0.068
			c-1.963-1.405-3.754-3.154-4.149-5.716c0-0.04-0.014-0.061-0.027-0.101c0.006,0.02,0.014,0.02,0.027,0
			c-0.115-0.812-0.103-1.698,0.096-2.692c0.135,0.695,0.19,1.451,0.252,2.215c0.144,0.368,0.354,0.743,0.464,1.225
			c0.62,2.03,2.39,3.092,3.979,4.292c2.391,1.806,4.796,3.605,7.358,5.144c0.975,0.573,1.676,1.002,2.76,0.948v-0.021
			c0,0,0.014,0,0.014,0.014c0.688-2.022,1.39-4.149,2.097-6.186c-0.441,0.034-0.872,0.115-1.293,0.135
			c-2.918,0.158-5.962,1.417-8.299-0.557c-0.715-0.348-1.219-0.873-1.403-1.623c1.096,0.074,1.648,0.703,2.263,1.254
			c0.359,0.123,0.715,0.211,0.986,0.28c0.253,0.068,0.54,0.089,0.798,0.122c1.677,0,3.236-0.115,4.783-0.251
			c0.068-0.028,0.129-0.028,0.205-0.028c0.803-0.149,1.56-0.253,2.303-0.354c0.437-1.329,0.891-2.669,1.349-4.005
			c0.061-0.151,0.082-0.274,0.136-0.389c-1.048,0.238-2.084,0.463-3.101,0.688c-3.071,0.817-6.146,1.594-9.246,2.322
			c-0.626,0.131-1.172,0.124-1.703,0.022c-0.013,0.013-0.066,0.027-0.081,0.027c-0.021-0.014-0.048-0.034-0.048-0.049
			c-0.723-0.175-1.336-0.591-1.874-1.402c-0.054-0.102-0.177-0.456-0.307-0.899c-0.66-1.07-0.986-2.377-0.572-4.061
			c-0.115,2.616,1.67,5.117,3.394,5.518c0.722,0.009,1.546-0.292,2.139-0.42c0.443-0.097,0.886-0.212,1.316-0.321
			c0.02-0.006,0.04-0.014,0.046-0.014c0.008-0.006,0.027-0.006,0.048-0.006c3.177-0.771,6.296-1.587,9.432-2.459
			c4.313-1.214,8.632-2.48,12.857-4.048c0.468-0.176,0.95-0.375,1.441-0.565c0.342-0.142,0.464-0.183,0.614-0.232
			c0.661-0.272,1.308-0.579,1.949-0.887c0.027-0.033,0.046-0.033,0.061-0.046c0.472-0.253,0.845-0.45,1.261-0.669
			c0.307-0.197,0.641-0.38,0.935-0.605c0.136-0.116,0.251-0.205,0.341-0.245c0.055-1.022-0.009-0.798-0.328-1.641
			c-0.58,0.147-1.472,0.701-2.044,0.809c-1.854,0.41-1.376,0.355-2.917,0.566c-0.408-1.649-1.376-2.773-1.784-4.416
			c2.233-1.335,5.156-1.968,5.247-5.431c-2.944-0.954-4.471-2.241-7.188-3.419c-0.463-0.614-1.67-2.548-2.31-3.829
			c-1.118-1.792-0.785-0.981-2.332-2.929c-1.198-1.534-2.725-3.06-3.991-3.693c-1.159-0.565-3.025-1.171-4.56-1.574
			c-1.518-0.402-3.038-1.132-4.585-1.151c-1.063-0.021-2.425,0.422-3.617,0.66c-3.42,0.682-4.428,1.161-6.581,2.795
			c-0.948,0.728-2.215,1.546-2.787,2.295c-0.253,0.333-0.94,1.125-1.157,1.479c-0.471,0.812-0.907,1.124-1.302,1.859
			c-0.715,1.336-0.702,1.494-1.159,2.412c-1.118,2.275-2.146,4.632-2.588,7.462c0.061,7.992,4.666,11.159,6.206,17.667
			c0.108-0.879-0.496-1.909,0-2.623c0.538,0.823,0.339,2.405,0.499,3.617c1.225,1.397,3.337,1.921,3.957,3.932
			c-1.563-0.279-2.806-2.637-4.026-2.718c1.948,1.647,3.707,3.468,5.825,4.53c0.313,0.157,0.783,0,1.144,0.17
			c1.792,0.818,3.136,2.971,4.75,3.447c0.749,0.226,0.934-0.109,1.492,0.703c-3.715,0.633-4.804-4.353-7.032-3.325
			c-1.668,0.755-2.051,0.511-3.985,0.818c-0.307,1.546,1.655,3.808,1.935,5.272c1.281,1.839,0.048,2.74,1.152,4.757
			c1.157,1.036,1.854,1.307,2.84,1.955c0.56,3.891,0.185,8.02,1.472,11.835c1.445,2.827,4.777,4.721,7.079,7.215
			c2.502,2.739,5.915,5.653,7.856,7.576c6.773,6.568,13.258,12.054,20.236,18.388c1.758,1.597,5.987,4.605,6.88,6.576
			c0.785,1.69,1.082,3.986,1.629,6.069c0.571,2.05,1.466,4.279,1.655,6.079c0.382,3.258-0.826,6.364,0,9.858
			c0.144,0.551,0.491,1.165,0.929,1.799c13.43-8.674,26.134-19.947,37.104-33.591c0.806-1.014,1.575-2.008,2.345-3.037
			C185.163,395.498,184.127,394.79,182.677,394.578 M127.06,330.479c-0.172-0.089-0.376-0.103-0.594-0.028
			c-0.056,0.015-0.102,0.048-0.157,0.061c-0.068,0.055-0.122,0.069-0.17,0.069c-1.274,0.496-2.568,0.906-3.652,1.294
			c-0.618,0.218-1.281,0.416-1.901,0.619c-0.129,0.055-0.23,0.097-0.36,0.138c0.026,0.367,0.068,0.696,0.109,1.036
			c0.307,1.137,0.622,2.253,0.913,3.378c1.934-0.674,3.85-1.404,5.723-2.254c0.463-0.224,0.9-0.471,1.336-0.737
			c-0.149-0.537-0.28-1.076-0.442-1.601C127.638,331.793,127.372,331.132,127.06,330.479 M120.415,337.333
			c-0.278-1.335-0.586-3.087-1.267-4.259c-0.034-0.026-0.04-0.075-0.062-0.095c-1.328,0.43-2.656,0.873-3.992,1.268
			c-0.866,0.294-1.744,0.593-2.656,0.844c-0.479,1.404-0.976,2.815-1.432,4.225c-0.055,0.15-0.068,0.279-0.095,0.416
			c0.742-0.109,1.471-0.217,2.269-0.381c2.077-0.43,4.135-0.981,6.152-1.628C119.708,337.612,120.048,337.462,120.415,337.333
			 M121.566,338.287c0.408,1.776,0.743,3.583,0.94,5.429c1.942-0.503,3.77-1.465,5.438-2.152c0.034-0.028,0.08-0.062,0.121-0.075
			c0.464-0.313,0.791-0.565,1.063-0.675c0.006-1.861-0.185-3.699-0.552-5.511c-0.149,0.008-0.307,0.033-0.448,0.062
			c-2.051,1.226-4.56,2.078-6.576,2.731C121.554,338.157,121.566,338.218,121.566,338.287"/>
		<path fill="#19398A" d="M249.548,466.543c-0.077-0.898-0.594-2.205-0.946-2.753c-0.864-1.267-2.106-2.291-3.598-2.678
			c-3.557-0.946-7.142,1.383-9.839,3.646c-0.539-1.285-1.071-2.6-1.432-3.987l-2.615-5.572c-0.994-2.414-2.933-3.864-3.441-6.739
			c-5.309-7.792-7.802-18.375-15.794-23.498c-1.628-2.024-3.336-3.987-5.389-5.59c-2.16-3.677-6.458-5.061-7.739-9.358
			c-0.287-0.96,0-2.292-0.483-3.276c-0.327-0.65-1.234-0.872-2.155-1.656c-0.716-0.612-1.347-1.526-1.941-1.965
			c-0.573-0.408-1.191-0.776-1.805-1.143c-13.489,14.391-28.574,25.673-43.973,33.413c0.142,0.188,0.29,0.396,0.429,0.578
			c1.377,2.049,3.242,3.829,3.549,6.405c0.128,1.137,0.682,2.139,0.819,3.229c0.094,0.905,0.47,1.626,0.829,2.43
			c0.418,0.975,0.32,1.997,0.409,3.027c0.057,0.853,0.436,1.555,0.635,2.359c0.089,0.373-0.114,0.768,0,1.124
			c0.074,0.25,0.353,0.328,0.458,0.556c0.243,0.582,0.121,1.505,0.284,2.156c0.232,1.156,0.614,2.336,0.52,3.547
			c-0.159,2.493,0.381,5.083,0.576,7.558c0.336,3.741,0.442,7.486,0.336,11.229c-0.083,1.941-0.211,3.874-0.396,5.791
			c-0.104,0.974-0.226,1.954-0.348,2.924c-0.089,0.607-0.051,2.432-0.442,2.867c-2.087,2.288-2.827,5.308-4.77,7.557
			c-1.45,1.682-3.647,3.004-5.425,4.427c-1.054,0.866-2.112,1.752-3.181,2.617c-0.81,0.675-1.881,1.222-2.473,2.129
			c-0.444,0.644-0.703,1.476-1.051,2.203c-0.811,1.732-1.71,3.433-2.588,5.158c-0.62,1.188-1.049,2.453-1.629,3.65
			c-0.537,1.05-1.261,1.923-1.914,2.896c-0.77,1.159-1.003,2.535-2.045,3.57c-0.762,0.777-1.566,1.703-2.072,2.399
			c-1.524,1.963-2.186,2.728-3.581,4.777c-1.385,2.084-2.652,4.531-4.272,6.255c-1.432,1.527-3.449,2.754-5.084,4.101
			c-1.717,1.406-3.318,2.364-5.069,4.162c-1.103,2.229-0.851,4.82-1.341,7.183c-0.206,0.996-0.817,1.736-0.817,2.801
			c0,1.165,0.571,2.479,0.817,3.746c0.463,2.394-0.11,5.736,1.9,7.495c2.351,2.052,6.214,3.065,9.177,3.065
			c4.952-0.461,8.681-0.816,13.743-1.188c1.302-0.59,0.988-3.172,0.94-3.601c-0.061-0.777-0.483-1.213,0.033-1.982
			c6.67-8.222,12.101-17.682,20.365-24.295c1.15,1.639,2.575,3.144,3.932,4.918c1.228,1.547,2.433,3.932,3.951,4.92
			c1.785,1.197,3.741,2.158,6.234,2.299c2.738-1.455,1.411-12.937,4.113-17.413c2.006-0.381,3.519-1.303,5.432-1.792
			c12.231-12.31,25.968-24.853,39.08-36.798c1.903-1.731,3.866-3.926,5.759-5.09c3.476-2.139,7.626-2.882,11.17-4.77
			C241.159,479.769,250.603,468.893,249.548,466.543 M131.051,565.616c-1.22,1.28-3.244,1.229-7.911,1.028
			c-4.653-0.219-4.354-0.382-7.019-1.54c-2.227-0.938-2.949-0.606-2.445-6.462c0.532-6.201,5.376-5.06,10.636-3.395
			c5.341,1.668,5.376,2.22,5.628,3.338c0.259,1.129,1.322,4.448,1.322,4.448S131.861,564.771,131.051,565.616 M169.463,544.869
			c-0.171,1.547,0.156,2.548-1.615,2.276c-2.818-0.444-2.881-2.637-4.031-4.333c-1.331-1.937-2.053-3.305-2.053-3.305
			c0.657-1.655,1.036-1.028,2.659-1.36c1.539-0.342,3.27-1.041,4.054-1.041c0.802,0,0.423-0.556,0.935,2.585
			C169.865,542.319,169.654,543.179,169.463,544.869 M195.293,476.867c-4.033-1.412-8.966-3.543-14.764-2.284
			c-0.063,0.122-0.162,0.161-0.162,0.322c0.359-0.425,4.421,0.023,3.275,0.164c-3.182,0.188-6.744,0.338-9.204,1.138
			c4.673-4.507,14.939-3.511,20.385-0.487c0.881,0.445,1.015,0.506,1.749,0.954C197.139,477.876,196.431,477.24,195.293,476.867
			 M248.547,466.728c-0.735,0.655-0.935,1.047-1.329,1.608c-0.579,0.537-0.579,0.599-1.149,1.177
			c-1.005,1.064-0.711,1.064-2.013,2.076c-0.627,0.623-0.99,0.847-2.077,1.78c-1.242,1.152-2.072,1.59-3.632,2.838
			c-1.48,1.211-2.604,2.263-4.267,3.631c-0.542,0.406-2.247,1.475-5.348,3.056c-1.294,0.8-2.908,1.609-4.668,1.216
			c1.494-1.425,2.924-3.333,5.083-5.107c3.093-2.496,8.101-3.282,7.892-7.71c-0.109-2.221-0.913-4.199-1.738-6.199
			c0.531-0.341,1.123-0.697,1.533-1.011c0.946-0.721,2.194-1.334,3.241-1.873c1.485-0.749,3.014-0.879,4.676-0.544
			c1.648,0.335,2.603,1.907,3.374,3.325C248.466,465.629,248.715,466.265,248.547,466.728"/>
		<path fill="#B6C654" d="M59.47,296.75c-7.168,11.425-12.77,23.199-16.809,34.917c4.789-11.671,11.234-23.268,19.519-34.236
			c0.192-0.259,0.396-0.511,0.595-0.771C61.662,296.701,60.564,296.721,59.47,296.75"/>
		
			<linearGradient id="SVGID_1_" gradientUnits="userSpaceOnUse" x1="-65.915" y1="744.2588" x2="4.4331" y2="744.2968" gradientTransform="matrix(2.6784 0 0 2.6784 252.1307 -1658.6624)">
			<stop  offset="0" style="stop-color:#B6C654"/>
			<stop  offset="0.28" style="stop-color:#B6C654"/>
			<stop  offset="0.316" style="stop-color:#CFCD44"/>
			<stop  offset="0.377" style="stop-color:#F6D11B"/>
			<stop  offset="0.455" style="stop-color:#FCC90B"/>
			<stop  offset="0.546" style="stop-color:#FBC80B"/>
			<stop  offset="0.649" style="stop-color:#FEBB32"/>
			<stop  offset="0.65" style="stop-color:#F6B13F"/>
			<stop  offset="0.685" style="stop-color:#EB1E7D"/>
			<stop  offset="0.771" style="stop-color:#E8645A"/>
			<stop  offset="0.849" style="stop-color:#E59B3F"/>
			<stop  offset="0.915" style="stop-color:#E3C32B"/>
			<stop  offset="0.968" style="stop-color:#E2DB1E"/>
			<stop  offset="1" style="stop-color:#E2E41A"/>
		</linearGradient>
		<path fill="url(#SVGID_1_)" d="M210.594,236.741c-37.146-28.023-99.843-7.719-141.254,45.205c1.792-0.129,4.014-0.271,6.269-0.449
			c37.159-37.323,87.08-49.048,118.529-25.318c35.647,26.899,34.042,89.16-3.581,139.074
			c-19.364,25.675-44.496,43.047-69.185,50.233c28.916-6.764,59.4-27.021,82.668-57.878
			C245.411,332.76,248.338,265.221,210.594,236.741"/>
	</g>
</g>
</svg>
